<svg xmlns="http://www.w3.org/2000/svg" viewBox="0 0 512 512" fill="#ffffff">
  <path d="M292.9 203.1c-7.8-7.8-20.5-7.8-28.3 0l-44.7 44.7c-7.8 7.8-7.8 20.5 0 28.3 7.8 7.8 20.5 7.8 28.3 0l44.7-44.7c7.8-7.8 7.8-20.5 0-28.3zM397.4 119.6c-7.8-7.8-20.5-7.8-28.3 0L308.3 180c-7.8 7.8-7.8 20.5 0 28.3 7.8 7.8 20.5 7.8 28.3 0l60.8-60.4c7.8-7.9 7.8-20.6 0-28.3zM180 308.3c-7.8-7.8-20.5-7.8-28.3 0l-60.4 60.8c-7.8 7.8-7.8 20.5 0 28.3 7.8 7.8 20.5 7.8 28.3 0l60.4-60.8c7.8-7.8 7.8-20.5 0-28.3zM292.9 308.3c-7.8-7.8-20.5-7.8-28.3 0l-44.7 44.7c-7.8 7.8-7.8 20.5 0 28.3 7.8 7.8 20.5 7.8 28.3 0l44.7-44.7c7.8-7.8 7.8-20.5 0-28.3zM397.4 292.9c-7.8-7.8-20.5-7.8-28.3 0L308.3 353c-7.8 7.8-7.8 20.5 0 28.3 7.8 7.8 20.5 7.8 28.3 0l60.8-60.4c7.8-7.9 7.8-20.6 0-28.3zM180 180c-7.8-7.8-20.5-7.8-28.3 0l-60.4 60.8c-7.8 7.8-7.8 20.5 0 28.3 7.8 7.8 20.5 7.8 28.3 0l60.4-60.8c7.8-7.8 7.8-20.5 0-28.3z"/>
</svg>

